<?xml version="1.0" encoding="iso-8859-1"?>
<!-- Uploaded to: SVG Repo, www.svgrepo.com, Generator: SVG Repo Mixer Tools -->
<svg fill="#000000" height="800px" width="800px" version="1.1" id="Layer_1" xmlns="http://www.w3.org/2000/svg" xmlns:xlink="http://www.w3.org/1999/xlink" 
	 viewBox="0 0 496 496" xml:space="preserve">
<g>
	<g>
		<path d="M413.76,319.488l-62.56-13.904v-19.768c23.344-16.848,38.8-43.88,39.832-74.56c20.712-21.864,32.168-50.28,32.168-80.512
			V96c0-20.256-15.144-37.056-34.704-39.648C371.712,21.96,336.832,0,298.272,0h-13.464c-26.016,0-51.664,8.8-72.208,24.776
			c-28.856,22.44-45.4,56.28-45.4,92.832V128h-52L93.6,99.2l-12.8,9.6L95.2,128h-20L53.6,99.2l-12.8,9.6L55.2,128h-20L13.6,99.2
			l-12.8,9.6L21.2,136L0.8,163.2l12.8,9.6L35.2,144h20l-14.4,19.2l12.8,9.6L75.2,144h20l-14.4,19.2l12.8,9.592l21.6-28.8h52.808
			c2.824,25.232,13.712,48.624,31.36,67.256c1.04,30.68,16.488,57.712,39.832,74.56v19.768l-62.56,13.896
			C128.688,330.144,95.2,371.88,95.2,421.008V496h167.304h65.392H495.2v-74.992C495.2,371.88,461.712,330.144,413.76,319.488z
			 M358.216,323.528l-12.208,54.928l-37.728-26.944l37.024-30.856L358.216,323.528z M295.2,341.584l-40-33.336V295.16
			c12.192,5.616,25.712,8.84,40,8.84c14.288,0,27.808-3.224,40-8.84v13.088L295.2,341.584z M199.2,185.304
			C191.192,172.84,186.088,158.8,184.16,144h15.04V185.304z M183.2,128v-10.392c0-31.584,14.296-60.824,39.224-80.208
			C240.176,23.6,262.336,16,284.808,16h13.464c33.808,0,64.256,20.08,77.576,51.152l2.08,4.848h5.272c13.232,0,24,10.768,24,24
			v34.744c0,19.648-5.624,38.416-16,54.56V136c0-52.936-43.064-96-96-96c-50.24,0-91.504,38.8-95.592,88H183.2z M281.424,128
			c2.776-4.76,7.88-8,13.776-8c8.824,0,16,7.176,16,16c0,8.824-7.176,16-16,16c-5.896,0-11-3.24-13.776-8H295.2v-16H281.424z
			 M295.2,168c17.648,0,32-14.352,32-32s-14.352-32-32-32c-14.872,0-27.288,10.232-30.864,24H247.92
			c3.824-22.664,23.536-40,47.28-40c26.472,0,48,21.528,48,48s-21.528,48-48,48c-23.736,0-43.448-17.336-47.28-40h16.416
			C267.912,157.768,280.328,168,295.2,168z M295.2,200c35.288,0,64-28.712,64-64c0-35.288-28.712-64-64-64
			c-32.576,0-59.488,24.48-63.448,56H215.6c4.032-40.368,38.184-72,79.592-72c44.112,0,80,35.888,80,80s-35.888,80-80,80
			c-41.408,0-75.568-31.632-79.592-72h16.152C235.712,175.52,262.624,200,295.2,200z M215.2,208v-19.048
			c17.208,25.912,46.624,43.048,80,43.048c33.376,0,62.792-17.136,80-43.048V208c0,44.112-35.888,80-80,80S215.2,252.112,215.2,208z
			 M245.088,320.664l37.024,30.856l-37.728,26.944l-12.208-54.928L245.088,320.664z M263.84,480H191.2v-32h-16v32h-64v-58.992
			c0-41.56,28.336-76.888,68.904-85.896l36.456-8.104l17.456,78.536l27.656-19.76l9.248,9.248L263.84,480z M310.504,480h-30.608
			l7.584-91.032l-12.616-12.616l20.336-14.52l20.336,14.528l-12.616,12.616L310.504,480z M479.2,480h-64v-32h-16v32h-72.64
			l-7.08-84.968l9.248-9.248l27.656,19.76l17.456-78.536l36.456,8.104c40.568,9.008,68.904,44.336,68.904,85.896V480z"/>
	</g>
</g>
</svg>